<svg width="12" height="12" viewBox="0 0 12 12" fill="none" xmlns="http://www.w3.org/2000/svg">
<path d="M9.40669 4.58553C9.37714 4.55842 9.34205 4.53691 9.30342 4.52223C9.2648 4.50755 9.2234 4.5 9.18159 4.5C9.13978 4.5 9.09837 4.50755 9.05975 4.52223C9.02113 4.53691 8.98604 4.55842 8.95649 4.58553L5.99996 7.29585L3.04344 4.58553C2.98374 4.53081 2.90277 4.50007 2.81834 4.50007C2.73391 4.50007 2.65294 4.53081 2.59324 4.58553C2.53354 4.64025 2.5 4.71447 2.5 4.79186C2.5 4.86925 2.53354 4.94346 2.59324 4.99818L5.77486 7.91447C5.80441 7.94158 5.8395 7.96309 5.87813 7.97777C5.91675 7.99245 5.95815 8 5.99996 8C6.04177 8 6.08318 7.99245 6.1218 7.97777C6.16042 7.96309 6.19551 7.94158 6.22506 7.91447L9.40669 4.99818C9.43627 4.9711 9.45974 4.93894 9.47575 4.90353C9.49176 4.86813 9.5 4.83018 9.5 4.79186C9.5 4.75353 9.49176 4.71558 9.47575 4.68018C9.45974 4.64478 9.43627 4.61261 9.40669 4.58553Z" fill="#8C8C8C"/>
</svg>
